#N canvas 659 210 471 440 10;
#X msg -66 236 disconnect;
#X obj -124 286 udpsend;
#X obj -124 308 tgl 15 0 empty empty connected 17 7 0 10 -204786 -1
-1 1 1;
#X obj 39 263 packOSC;
#X msg 39 240 sendtyped /mapmap/paint/media/load is \$1 \$2;
#X msg -123 259 connect 127.0.0.1 12345;
#X obj 119 263 print OSC;
#X obj 37 194 makefilename /home/aalex/Videos/%s;
#X obj 37 2 metro 10000;
#X obj 37 51 select 0 1 2 3 4 5 6 7 8 9;
#X obj 37 -42 loadbang;
#X msg 37 -20 1;
#X msg 39 83 MVI_1208.MOV;
#X msg 56 104 MVI_1212.MOV;
#X msg 78 124 MVI_1213.MOV;
#X msg 96 148 MVI_1214.MOV;
#X msg 138 82 MVI_1219.MOV;
#X msg 156 103 MVI_1220.MOV;
#X msg 178 123 MVI_1224.MOV;
#X obj 37 171 symbol;
#X obj 38 24 urn 10;
#X msg 143 30 clear;
#X obj 140 4 t b;
#X obj -123 213 t b b;
#X obj -122 146 loadbang;
#X msg -122 168 1;
#X obj -123 236 delay 1;
#X obj -123 190 metro 7001;
#X obj 37 217 list prepend 0;
#X obj -120 -73 cnv 15 25 25 empty empty Sends_OSC_messages_to_MapMap
5 12 0 14 -258113 -66577 0;
#X obj 113 167 cnv 15 25 25 empty empty Absolute_path_to_movies 5 12
0 14 -258113 -66577 0;
#X obj 231 75 cnv 15 25 25 empty empty Movie_files 5 12 0 14 -258113
-66577 0;
#X obj -124 334 cnv 15 25 25 empty empty Depends_on_zexy_osc_iemnet
5 12 0 14 -258113 -66577 0;
#X connect 0 0 1 0;
#X connect 1 0 2 0;
#X connect 3 0 1 0;
#X connect 4 0 3 0;
#X connect 4 0 6 0;
#X connect 5 0 1 0;
#X connect 7 0 28 0;
#X connect 8 0 20 0;
#X connect 9 0 12 0;
#X connect 9 1 13 0;
#X connect 9 2 14 0;
#X connect 9 3 15 0;
#X connect 9 4 16 0;
#X connect 9 5 17 0;
#X connect 9 6 18 0;
#X connect 10 0 11 0;
#X connect 11 0 8 0;
#X connect 12 0 19 0;
#X connect 13 0 19 0;
#X connect 14 0 19 0;
#X connect 15 0 19 0;
#X connect 16 0 19 0;
#X connect 17 0 19 0;
#X connect 18 0 19 0;
#X connect 19 0 7 0;
#X connect 20 0 9 0;
#X connect 20 1 22 0;
#X connect 21 0 20 0;
#X connect 22 0 21 0;
#X connect 23 0 26 0;
#X connect 23 1 0 0;
#X connect 24 0 25 0;
#X connect 25 0 27 0;
#X connect 26 0 5 0;
#X connect 27 0 23 0;
#X connect 28 0 4 0;
