#N canvas 524 289 648 451 10;
#X msg 33 249 disconnect;
#X obj 16 283 udpsend;
#X obj 16 25 loadbang;
#X obj 16 305 tgl 15 0 empty empty connected 17 7 0 10 -204786 -1 -1
1 1;
#X obj 275 180 packOSC;
#X msg 275 143 sendtyped /mapmap/paint/media/load is \$1 \$2;
#X msg 226 28 0 /home/aalex/actif/pds-ker-thiossane/tissu-alex-slomo/MVI_1245.MOV
;
#X msg 229 79 0 /home/aalex/actif/pds-ker-thiossane/tissu-alex-slomo/MVI_1242.MOV
;
#X msg 16 59 connect 127.0.0.1 12345;
#X obj 291 234 print OSC;
#X obj 217 273 print binary;
#X connect 0 0 1 0;
#X connect 1 0 3 0;
#X connect 2 0 8 0;
#X connect 4 0 1 0;
#X connect 4 0 10 0;
#X connect 5 0 4 0;
#X connect 5 0 9 0;
#X connect 6 0 5 0;
#X connect 7 0 5 0;
#X connect 8 0 1 0;
